# xmcd
#
# Track frame offsets: 
#        150
#        12312
#        24767
#        36295
#        53430
#        66400
#        79747
#        92785
#        104735
#        116557
#        135370
#        149402
#        167662
#        179855
#        194990
#        207912
#        222355
#        239440
#        253665
#        277822
#        291475
#        302835
#        317667
#
# Disc length: 4415 seconds
#
# Revision: 5
# Processed by: cddbd v1.5.2PL0 Copyright (c) Steve Scherf et al.
# Submitted via: ExactAudioCopyFreeDBPlugin 1.0
#
DISCID=61113d17
DTITLE=Johnny Cash - The Essential Johnny Cash, 1955-1983
DYEAR=1998
DGENRE=Country
TTITLE0=Folsom Prison Blues (live)
TTITLE1=Cocaine Blues (live)
TTITLE2=San Quentin #2 (live)
TTITLE3=A Boy Named Sue (live)
TTITLE4=Wanted Man
TTITLE5=Singin' in Vietnam Talkin' Blues
TTITLE6=Man in Black
TTITLE7=What is Truth
TTITLE8=Flesh and Blood
TTITLE9=Sunday Morning Coming Down
TTITLE10=Oney
TTITLE11=One Piece at a Time
TTITLE12=Hit the Road and Go
TTITLE13=Rockabilly Blues (Texas 1955)
TTITLE14=I Will Rock and Roll with You
TTITLE15=No Expectations
TTITLE16=(Ghost) Riders in the Sky
TTITLE17=Bull Rider
TTITLE18=Highway Patrolman
TTITLE19=After the Ball
TTITLE20=Without Love
TTITLE21=The Last Time
TTITLE22=I'm Gonna Sit on the Porch and Pick on My Old Guitar
EXTD=Columbia/Legacy - C3K 47991\nDisk 2 of 3\n YEAR: 1998 ID3G: 2
EXTT0=
EXTT1=
EXTT2=
EXTT3=
EXTT4=
EXTT5=
EXTT6=
EXTT7=
EXTT8=
EXTT9=
EXTT10=
EXTT11=
EXTT12=
EXTT13=
EXTT14=
EXTT15=
EXTT16=
EXTT17=
EXTT18=
EXTT19=
EXTT20=
EXTT21=
EXTT22=
PLAYORDER=
